# Blender v2.70 (sub 0) OBJ File: ''
# www.blender.org
mtllib board.mtl
o board.001
v -4.816009 -0.242944 4.816009
v -4.816009 -0.242942 -4.816009
v 4.816009 -0.242942 -4.816009
v 4.816009 -0.242944 4.816009
v 3.612006 0.026754 1.204002
v 3.612006 0.026754 0.000000
v 2.408004 0.026754 0.000000
v 2.408004 0.026754 1.204002
v 4.816009 0.026754 1.204002
v 4.816009 0.026754 2.408004
v 3.612006 0.026754 2.408004
v 4.816009 0.026753 3.612006
v 3.612006 0.026753 3.612006
v 4.816009 0.026753 4.816009
v 3.612006 0.026753 4.816009
v 2.408004 0.026754 2.408004
v 2.408004 0.026753 3.612006
v 1.204002 0.026753 3.612006
v 2.408004 0.026753 4.816009
v 1.204002 0.026753 4.816009
v 0.000000 0.026754 2.408004
v 0.000000 0.026753 3.612006
v 1.204002 0.026754 2.408004
v 0.000000 0.026754 0.000000
v 0.000000 0.026754 1.204002
v 1.204002 0.026754 1.204002
v 1.204002 0.026754 0.000000
v -1.204002 0.026753 3.612006
v 0.000000 0.026753 4.816009
v -1.204002 0.026753 4.816009
v -2.408004 0.026754 2.408004
v -2.408004 0.026753 3.612006
v -1.204002 0.026754 2.408004
v -3.612006 0.026753 3.612006
v -2.408004 0.026753 4.816009
v -3.612006 0.026753 4.816009
v -4.816009 0.026754 2.408004
v -4.816009 0.026753 3.612006
v -3.612006 0.026754 2.408004
v -4.816009 0.026754 0.000000
v -4.816009 0.026754 1.204002
v -3.612006 0.026754 1.204002
v -3.612006 0.026754 0.000000
v -2.408004 0.026754 1.204002
v -1.204002 0.026754 1.204002
v -2.408004 0.026754 0.000000
v -1.204002 0.026754 0.000000
v -4.816009 0.026755 -4.816009
v -4.816009 0.026755 -3.612006
v -3.612006 0.026755 -3.612006
v -3.612006 0.026755 -4.816009
v -2.408004 0.026754 -2.408004
v -2.408004 0.026755 -3.612006
v -3.612006 0.026754 -2.408004
v 0.000000 0.026754 -2.408004
v 0.000000 0.026755 -3.612006
v -1.204002 0.026755 -3.612006
v -1.204002 0.026754 -2.408004
v -2.408004 0.026755 -4.816009
v -1.204002 0.026755 -4.816009
v 0.000000 0.026754 -1.204002
v -1.204002 0.026754 -1.204002
v -2.408004 0.026754 -1.204002
v -4.816009 0.026754 -2.408004
v -4.816009 0.026754 -1.204002
v -3.612006 0.026754 -1.204002
v 4.816009 0.026755 -3.612006
v 3.612006 0.026755 -3.612006
v 4.816009 0.026754 -2.408004
v 3.612006 0.026754 -2.408004
v 2.408004 0.026755 -4.816009
v 2.408004 0.026755 -3.612006
v 3.612006 0.026755 -4.816009
v 4.816009 0.026754 -1.204002
v 3.612006 0.026754 -1.204002
v 4.816009 0.026754 0.000000
v 2.408004 0.026754 -2.408004
v 2.408004 0.026754 -1.204002
v 1.204002 0.026754 -1.204002
v 1.204002 0.026754 -2.408004
v 0.000000 0.026755 -4.816009
v 1.204002 0.026755 -3.612006
v 1.204002 0.026755 -4.816009
v -5.293825 -0.242944 5.293825
v 5.293825 -0.242944 5.293825
v 0.000000 0.026753 5.293825
v -1.204002 0.026753 5.293825
v -2.408004 0.026753 5.293825
v -3.612006 0.026753 5.293825
v -5.293825 0.026753 5.293825
v 5.293825 0.026753 5.293825
v 3.612006 0.026753 5.293825
v 2.408004 0.026753 5.293825
v 1.204002 0.026753 5.293825
v 5.293825 -0.242942 -5.293825
v 5.293825 0.026755 -3.612006
v 5.293825 0.026754 -2.408004
v 5.293825 0.026754 -1.204002
v 5.293825 0.026754 0.000000
v 5.293825 0.026755 -5.293825
v 5.293825 0.026754 1.204002
v 5.293825 0.026754 2.408004
v 5.293825 0.026753 3.612006
v 0.000000 0.026755 -5.293825
v 1.204002 0.026755 -5.293825
v 2.408004 0.026755 -5.293825
v 3.612006 0.026755 -5.293825
v -5.293825 -0.242942 -5.293825
v -5.293825 0.026755 -5.293825
v -3.612006 0.026755 -5.293825
v -2.408004 0.026755 -5.293825
v -1.204002 0.026755 -5.293825
v -5.293825 0.026754 1.204002
v -5.293825 0.026754 0.000000
v -5.293825 0.026755 -3.612006
v -5.293825 0.026754 -1.204002
v -5.293825 0.026754 -2.408004
v -5.293825 0.026753 3.612006
v -5.293825 0.026754 2.408004
v 4.816009 0.083742 -4.816009
v 4.816009 0.083742 -3.612006
v 5.293825 0.083742 -3.612006
v 5.293825 0.083742 -5.293825
v 5.293825 0.083741 -2.408004
v 4.816009 0.083741 -2.408004
v 4.816009 0.083741 -1.204002
v 5.293825 0.083741 -1.204002
v 5.293825 0.083741 0.000000
v 4.816009 0.083741 0.000000
v 4.816009 0.083741 1.204002
v 5.293825 0.083741 1.204002
v 5.293825 0.083741 2.408004
v 4.816009 0.083741 2.408004
v 4.816009 0.083740 3.612006
v 5.293825 0.083740 3.612006
v 4.816009 0.083740 4.816009
v 5.293825 0.083740 5.293825
v -5.293825 0.083740 3.612006
v -5.293825 0.083740 5.293825
v -4.816009 0.083740 4.816009
v -4.816009 0.083740 3.612006
v -5.293825 0.083741 2.408004
v -4.816009 0.083741 2.408004
v -4.816009 0.083741 1.204002
v -5.293825 0.083741 1.204002
v -5.293825 0.083741 0.000000
v -4.816009 0.083741 0.000000
v -4.816009 0.083741 -1.204002
v -5.293825 0.083741 -1.204002
v -5.293825 0.083741 -2.408004
v -4.816009 0.083741 -2.408004
v -4.816009 0.083742 -3.612006
v -5.293825 0.083742 -3.612006
v -4.816009 0.083742 -4.816009
v -5.293825 0.083742 -5.293825
v 3.612006 0.083740 4.816009
v 3.612006 0.083740 5.293825
v 2.408004 0.083740 4.816009
v 2.408004 0.083740 5.293825
v 1.204002 0.083740 4.816009
v 1.204002 0.083740 5.293825
v 0.000000 0.083740 4.816009
v 0.000000 0.083740 5.293825
v -1.204002 0.083740 4.816009
v -1.204002 0.083740 5.293825
v -2.408004 0.083740 4.816009
v -2.408004 0.083740 5.293825
v -3.612006 0.083740 4.816009
v -3.612006 0.083740 5.293825
v -3.612006 0.083742 -5.293825
v -3.612006 0.083742 -4.816009
v -2.408004 0.083742 -5.293825
v -2.408004 0.083742 -4.816009
v -1.204002 0.083742 -4.816009
v -1.204002 0.083742 -5.293825
v 0.000000 0.083742 -5.293825
v 0.000000 0.083742 -4.816009
v 1.204002 0.083742 -4.816009
v 1.204002 0.083742 -5.293825
v 2.408004 0.083742 -5.293825
v 2.408004 0.083742 -4.816009
v 3.612006 0.083742 -4.816009
v 3.612006 0.083742 -5.293825
v -4.816009 0.026753 4.816009
v 4.816009 0.026755 -4.816009
vn 0.000000 1.000000 0.000000
vn 0.000000 -1.000000 -0.000000
vn 0.000000 0.000000 1.000000
vn 1.000000 0.000000 0.000000
vn 1.000000 0.000003 0.000000
vn 1.000000 -0.000003 0.000000
vn 1.000000 0.000006 0.000000
vn 0.000000 0.000000 -1.000000
vn -1.000000 0.000000 0.000000
vn -1.000000 -0.000003 0.000000
vn -1.000000 0.000003 0.000000
vn 1.000000 -0.000001 0.000000
vn 1.000000 0.000001 0.000000
usemtl bialy.007
s off
f 6//1 5//1 9//1
f 6//1 9//1 76//1
f 11//1 5//1 8//1
f 8//1 16//1 11//1
f 11//1 13//1 12//1
f 11//1 12//1 10//1
f 15//1 13//1 17//1
f 17//1 19//1 15//1
f 20//1 18//1 22//1
f 22//1 29//1 20//1
f 16//1 23//1 17//1
f 23//1 18//1 17//1
f 27//1 26//1 8//1
f 27//1 8//1 7//1
f 23//1 26//1 25//1
f 25//1 21//1 23//1
f 33//1 28//1 22//1
f 33//1 22//1 21//1
f 30//1 28//1 32//1
f 32//1 35//1 30//1
f 36//1 34//1 38//1
f 38//1 184//1 36//1
f 31//1 39//1 32//1
f 39//1 34//1 32//1
f 46//1 43//1 44//1
f 43//1 42//1 44//1
f 39//1 42//1 41//1
f 41//1 37//1 39//1
f 24//1 47//1 25//1
f 47//1 45//1 25//1
f 33//1 45//1 44//1
f 44//1 31//1 33//1
f 59//1 51//1 53//1
f 51//1 50//1 53//1
f 54//1 50//1 49//1
f 49//1 64//1 54//1
f 81//1 60//1 56//1
f 60//1 57//1 56//1
f 58//1 57//1 53//1
f 53//1 52//1 58//1
f 47//1 62//1 63//1
f 63//1 46//1 47//1
f 55//1 58//1 61//1
f 58//1 62//1 61//1
f 43//1 66//1 65//1
f 65//1 40//1 43//1
f 54//1 66//1 63//1
f 54//1 63//1 52//1
f 185//1 73//1 67//1
f 73//1 68//1 67//1
f 70//1 68//1 72//1
f 72//1 77//1 70//1
f 70//1 75//1 74//1
f 70//1 74//1 69//1
f 6//1 75//1 78//1
f 78//1 7//1 6//1
f 27//1 79//1 61//1
f 61//1 24//1 27//1
f 77//1 80//1 78//1
f 80//1 79//1 78//1
f 71//1 83//1 72//1
f 83//1 82//1 72//1
f 80//1 82//1 56//1
f 56//1 55//1 80//1
usemtl czarny.001
f 1//2 2//2 3//2
f 1//2 3//2 4//2
f 5//1 6//1 7//1
f 7//1 8//1 5//1
f 9//1 5//1 10//1
f 5//1 11//1 10//1
f 12//1 13//1 14//1
f 13//1 15//1 14//1
f 16//1 17//1 13//1
f 16//1 13//1 11//1
f 17//1 18//1 19//1
f 18//1 20//1 19//1
f 21//1 22//1 18//1
f 21//1 18//1 23//1
f 24//1 25//1 26//1
f 24//1 26//1 27//1
f 8//1 26//1 16//1
f 26//1 23//1 16//1
f 22//1 28//1 29//1
f 28//1 30//1 29//1
f 31//1 32//1 28//1
f 31//1 28//1 33//1
f 32//1 34//1 35//1
f 34//1 36//1 35//1
f 37//1 38//1 34//1
f 37//1 34//1 39//1
f 40//1 41//1 42//1
f 40//1 42//1 43//1
f 31//1 44//1 42//1
f 42//1 39//1 31//1
f 25//1 45//1 21//1
f 45//1 33//1 21//1
f 46//1 44//1 45//1
f 46//1 45//1 47//1
f 48//1 49//1 50//1
f 48//1 50//1 51//1
f 52//1 53//1 50//1
f 50//1 54//1 52//1
f 55//1 56//1 57//1
f 57//1 58//1 55//1
f 59//1 53//1 57//1
f 59//1 57//1 60//1
f 24//1 61//1 62//1
f 62//1 47//1 24//1
f 52//1 63//1 62//1
f 52//1 62//1 58//1
f 64//1 65//1 66//1
f 64//1 66//1 54//1
f 63//1 66//1 46//1
f 66//1 43//1 46//1
f 67//1 68//1 69//1
f 68//1 70//1 69//1
f 71//1 72//1 68//1
f 71//1 68//1 73//1
f 74//1 75//1 76//1
f 75//1 6//1 76//1
f 77//1 78//1 75//1
f 77//1 75//1 70//1
f 7//1 78//1 79//1
f 79//1 27//1 7//1
f 79//1 80//1 55//1
f 55//1 61//1 79//1
f 81//1 56//1 82//1
f 81//1 82//1 83//1
f 72//1 82//1 77//1
f 82//1 80//1 77//1
f 84//3 85//3 86//3
f 84//3 86//3 87//3
f 84//3 87//3 88//3
f 84//3 88//3 89//3
f 84//3 89//3 90//3
f 85//3 91//3 92//3
f 85//3 92//3 93//3
f 85//3 93//3 94//3
f 85//3 94//3 86//3
f 95//4 96//4 97//4
f 95//5 97//5 98//5
f 95//6 98//6 99//6
f 95//4 99//4 85//4
f 96//4 95//4 100//4
f 99//4 101//4 85//4
f 101//7 102//7 85//7
f 102//4 103//4 85//4
f 103//4 91//4 85//4
f 104//8 105//8 95//8
f 105//8 106//8 95//8
f 106//8 107//8 95//8
f 107//8 100//8 95//8
f 108//8 109//8 110//8
f 108//8 110//8 111//8
f 108//8 111//8 112//8
f 108//8 112//8 104//8
f 108//8 104//8 95//8
f 113//9 114//9 84//9
f 115//9 109//9 108//9
f 108//10 114//10 116//10
f 108//11 116//11 117//11
f 108//9 117//9 115//9
f 108//9 84//9 114//9
f 84//9 90//9 118//9
f 84//9 118//9 119//9
f 84//11 119//11 113//11
f 120//1 121//1 122//1
f 120//1 122//1 123//1
f 124//1 122//1 121//1
f 121//1 125//1 124//1
f 125//1 126//1 127//1
f 125//1 127//1 124//1
f 128//1 127//1 126//1
f 126//1 129//1 128//1
f 129//1 130//1 131//1
f 129//1 131//1 128//1
f 132//1 131//1 130//1
f 130//1 133//1 132//1
f 133//1 134//1 135//1
f 133//1 135//1 132//1
f 136//1 137//1 135//1
f 136//1 135//1 134//1
f 95//2 3//2 2//2
f 2//2 108//2 95//2
f 84//2 108//2 2//2
f 2//2 1//2 84//2
f 138//1 139//1 140//1
f 138//1 140//1 141//1
f 142//1 138//1 141//1
f 142//1 141//1 143//1
f 143//1 144//1 145//1
f 145//1 142//1 143//1
f 146//1 145//1 144//1
f 146//1 144//1 147//1
f 147//1 148//1 149//1
f 149//1 146//1 147//1
f 150//1 149//1 148//1
f 150//1 148//1 151//1
f 151//1 152//1 153//1
f 153//1 150//1 151//1
f 153//1 152//1 154//1
f 153//1 154//1 155//1
f 136//1 156//1 157//1
f 136//1 157//1 137//1
f 157//1 156//1 158//1
f 158//1 159//1 157//1
f 158//1 160//1 159//1
f 160//1 161//1 159//1
f 161//1 160//1 162//1
f 162//1 163//1 161//1
f 162//1 164//1 163//1
f 164//1 165//1 163//1
f 165//1 164//1 166//1
f 166//1 167//1 165//1
f 166//1 168//1 167//1
f 168//1 169//1 167//1
f 168//1 140//1 169//1
f 140//1 139//1 169//1
f 1//2 4//2 85//2
f 84//2 1//2 85//2
f 170//1 155//1 154//1
f 170//1 154//1 171//1
f 172//1 170//1 173//1
f 170//1 171//1 173//1
f 174//1 175//1 172//1
f 172//1 173//1 174//1
f 176//1 175//1 177//1
f 175//1 174//1 177//1
f 178//1 179//1 176//1
f 176//1 177//1 178//1
f 180//1 179//1 181//1
f 179//1 178//1 181//1
f 182//1 183//1 180//1
f 180//1 181//1 182//1
f 123//1 183//1 120//1
f 183//1 182//1 120//1
f 95//2 85//2 4//2
f 4//2 3//2 95//2
f 9//9 130//9 129//9
f 129//9 76//9 9//9
f 124//4 127//4 98//4
f 98//4 97//4 124//4
f 166//8 164//8 30//8
f 30//8 35//8 166//8
f 136//9 134//9 14//9
f 134//9 12//9 14//9
f 122//4 124//4 97//4
f 97//4 96//4 122//4
f 173//3 171//3 51//3
f 51//3 59//3 173//3
f 119//9 142//9 145//9
f 145//9 113//9 119//9
f 128//4 131//4 101//4
f 101//12 99//12 128//12
f 168//8 166//8 35//8
f 35//8 36//8 168//8
f 163//3 165//3 87//3
f 87//3 86//3 163//3
f 157//3 159//3 93//3
f 93//3 92//3 157//3
f 69//9 125//9 121//9
f 121//9 67//9 69//9
f 181//3 178//3 83//3
f 83//3 71//3 181//3
f 154//4 152//4 49//4
f 49//4 48//4 154//4
f 179//8 180//8 106//8
f 106//8 105//8 179//8
f 140//8 168//8 36//8
f 36//8 184//8 140//8
f 117//9 150//9 153//9
f 153//9 115//9 117//9
f 155//8 170//8 110//8
f 110//8 109//8 155//8
f 143//4 141//4 38//4
f 38//4 37//4 143//4
f 160//8 158//8 19//8
f 19//8 20//8 160//8
f 148//12 147//12 40//12
f 40//4 65//4 148//4
f 127//13 128//13 99//13
f 99//4 98//4 127//4
f 151//4 148//4 65//4
f 65//4 64//4 151//4
f 162//8 160//8 20//8
f 20//8 29//8 162//8
f 171//3 154//3 48//3
f 48//3 51//3 171//3
f 159//3 161//3 94//3
f 94//3 93//3 159//3
f 170//8 172//8 111//8
f 111//8 110//8 170//8
f 141//4 140//4 184//4
f 184//4 38//4 141//4
f 115//9 153//9 155//9
f 155//9 109//9 115//9
f 14//8 15//8 156//8
f 14//8 156//8 136//8
f 123//4 122//4 96//4
f 96//4 100//4 123//4
f 120//3 182//3 73//3
f 73//3 185//3 120//3
f 114//9 146//9 149//9
f 149//9 116//9 114//9
f 76//9 129//9 126//9
f 126//9 74//9 76//9
f 90//3 89//3 169//3
f 90//3 169//3 139//3
f 116//9 149//9 150//9
f 150//9 117//9 116//9
f 176//8 179//8 105//8
f 105//8 104//8 176//8
f 137//3 157//3 92//3
f 92//3 91//3 137//3
f 178//3 177//3 81//3
f 81//3 83//3 178//3
f 12//9 134//9 133//9
f 133//9 10//9 12//9
f 172//8 175//8 112//8
f 112//8 111//8 172//8
f 174//3 173//3 59//3
f 59//3 60//3 174//3
f 180//8 183//8 107//8
f 107//8 106//8 180//8
f 74//9 126//9 125//9
f 125//9 69//9 74//9
f 183//8 123//8 100//8
f 100//8 107//8 183//8
f 164//8 162//8 29//8
f 29//8 30//8 164//8
f 113//9 145//9 146//9
f 146//9 114//9 113//9
f 10//9 133//9 130//9
f 130//9 9//9 10//9
f 118//9 138//9 142//9
f 142//9 119//9 118//9
f 175//8 176//8 104//8
f 104//8 112//8 175//8
f 161//3 163//3 86//3
f 86//3 94//3 161//3
f 131//4 132//4 102//4
f 102//4 101//4 131//4
f 144//4 143//4 37//4
f 37//4 41//4 144//4
f 177//3 174//3 60//3
f 60//3 81//3 177//3
f 135//4 137//4 91//4
f 91//4 103//4 135//4
f 158//8 156//8 15//8
f 15//8 19//8 158//8
f 139//9 138//9 90//9
f 138//9 118//9 90//9
f 182//3 181//3 71//3
f 71//3 73//3 182//3
f 132//4 135//4 103//4
f 103//4 102//4 132//4
f 152//4 151//4 64//4
f 64//4 49//4 152//4
f 147//4 144//4 41//4
f 41//13 40//13 147//13
f 67//9 121//9 120//9
f 120//9 185//9 67//9
f 167//3 169//3 89//3
f 89//3 88//3 167//3
f 165//3 167//3 88//3
f 88//3 87//3 165//3
